<?xml version="1.0" standalone="no"?>
<!DOCTYPE svg PUBLIC "-//W3C//DTD SVG 20010904//EN"
 "http://www.w3.org/TR/2001/REC-SVG-20010904/DTD/svg10.dtd">
<svg version="1.0" xmlns="http://www.w3.org/2000/svg"
 width="512.000000pt" height="512.000000pt" viewBox="0 0 512.000000 512.000000"
 preserveAspectRatio="xMidYMid meet">

<g transform="translate(0.000000,512.000000) scale(0.100000,-0.100000)"
fill="#000000" stroke="none">
<path d="M0 2560 l0 -2560 796 0 796 0 -23 38 c-12 20 -38 59 -57 87 -19 27
-44 69 -54 92 l-19 44 78 129 c43 71 81 130 84 130 4 0 9 -17 13 -37 3 -21 9
-47 12 -58 3 -14 -3 -30 -20 -48 -30 -32 -22 -36 10 -6 l23 21 21 -42 c11 -23
30 -57 41 -76 34 -61 59 -151 59 -214 l0 -60 55 0 c49 0 62 5 110 40 30 22 58
40 64 40 5 0 7 -19 5 -42 l-4 -43 11 43 c20 82 144 173 240 176 39 1 44 3 28
11 -18 10 -17 13 18 55 62 74 117 120 133 114 8 -4 35 -8 60 -10 l45 -3 -43 8
c-23 4 -49 14 -58 22 -20 21 -28 77 -20 143 7 53 9 56 35 56 15 0 51 -7 80
-16 29 -8 55 -13 58 -11 2 3 -19 11 -46 18 -28 7 -51 15 -51 18 0 3 -44 6 -97
6 -73 0 -127 7 -211 28 -63 16 -116 26 -119 24 -2 -3 30 -12 71 -22 l76 -16 2
-122 2 -122 5 115 6 115 25 -2 c14 -1 54 -5 90 -9 l65 -7 0 -101 0 -101 -39
-35 c-22 -19 -57 -57 -78 -84 -29 -37 -54 -56 -96 -73 -31 -13 -58 -23 -59
-23 -12 0 4 48 37 108 22 40 40 79 40 85 0 14 -84 -147 -95 -181 -7 -25 -76
-92 -105 -104 -16 -6 -16 -4 0 27 9 18 17 58 19 89 1 31 12 89 23 129 24 83
26 148 7 264 l-13 83 -51 14 c-29 9 -91 14 -148 14 -54 0 -100 2 -104 5 -15
16 54 95 123 140 41 26 81 59 90 72 10 15 16 55 19 117 l4 93 -9 -92 c-5 -51
-14 -102 -20 -113 -6 -10 -46 -42 -89 -71 l-78 -51 -161 -256 c-88 -142 -166
-269 -173 -284 -16 -37 -24 -35 -37 10 -19 64 -97 214 -144 277 -51 69 -117
110 -233 144 -99 29 -258 51 -375 51 -55 0 -100 4 -100 9 0 4 56 82 126 172
69 90 164 216 212 279 48 63 112 141 142 175 45 50 47 53 11 20 -24 -22 -79
-87 -124 -144 l-80 -103 -18 23 c-41 54 -98 159 -127 234 -79 199 -80 290 -9
432 23 45 32 53 104 85 43 20 148 64 233 98 106 43 173 76 213 107 33 24 62
42 65 38 4 -3 16 -32 29 -63 l22 -57 1 115 1 115 44 -120 c36 -97 44 -111 40
-75 -2 25 -7 88 -10 140 l-6 95 20 -20 c17 -17 24 -48 39 -165 11 -80 16 -149
12 -154 -5 -4 -4 -22 1 -39 5 -18 9 -61 9 -96 0 -100 16 -62 37 86 l18 131 33
-121 c18 -67 42 -160 53 -207 11 -46 22 -86 25 -89 2 -2 5 40 5 95 1 54 4 113
8 129 6 27 8 24 18 -30 20 -103 35 -235 30 -249 -4 -10 5 -18 26 -25 31 -11
32 -11 11 7 -18 14 -23 32 -28 97 l-6 80 23 -60 c39 -101 46 -109 46 -45 0 30
-6 102 -14 160 -19 141 -19 144 17 75 62 -121 107 -170 283 -309 203 -161 364
-294 434 -358 l54 -50 170 4 169 3 45 50 c151 169 313 374 551 697 15 20 30
34 33 33 3 -2 6 1 6 8 0 7 4 21 8 32 5 11 -22 -22 -58 -73 -180 -251 -466
-609 -557 -697 l-41 -40 -161 -3 -160 -4 -42 39 c-66 62 -156 137 -397 330
-238 191 -260 214 -332 358 -19 37 -36 64 -39 59 -3 -5 -3 -3 -2 3 2 7 -19 64
-46 127 -27 63 -52 128 -56 143 -4 15 -12 39 -19 53 -22 43 -25 129 -13 345 7
116 14 199 15 185 14 -129 49 -316 84 -455 28 -108 42 -127 33 -47 -8 79 5
284 17 276 5 -3 7 -9 4 -14 -3 -5 0 -12 6 -16 8 -4 9 -3 5 4 -10 17 -1 15 45
-9 23 -11 43 -18 45 -16 3 2 -9 10 -25 17 -16 6 -45 23 -63 37 l-33 24 30 -7
c17 -4 44 -13 62 -21 38 -15 66 -18 44 -4 -31 20 3 31 95 31 68 0 94 -3 94
-12 0 -10 2 -10 8 -1 13 20 190 5 214 -19 27 -27 22 -42 -23 -67 -22 -13 -38
-25 -35 -28 3 -3 18 4 34 16 35 25 42 26 42 8 0 -8 6 -14 14 -14 8 0 11 8 8
19 -5 22 16 50 32 41 6 -3 8 -2 3 2 -4 5 1 17 10 27 13 14 14 21 5 30 -9 9
-12 7 -12 -9 0 -11 -11 -28 -25 -37 l-25 -16 0 56 0 56 28 -17 27 -18 -27 29
-26 29 8 190 c12 251 10 235 20 205 l8 -25 1 28 c1 15 5 27 11 27 5 0 7 -13 4
-30 -4 -17 -2 -30 3 -30 12 0 33 89 33 142 0 81 8 30 19 -117 17 -226 21 -399
9 -387 -5 5 -10 16 -12 23 -3 22 -25 56 -26 40 0 -11 -4 -11 -18 2 -39 36 -40
15 -1 -22 22 -22 38 -45 34 -51 -3 -6 -1 -9 7 -8 10 2 13 -25 12 -134 -1 -146
9 -174 20 -58 4 39 10 68 14 66 4 -2 7 8 8 22 1 49 47 253 55 241 4 -6 4 10 1
36 -4 38 -2 46 8 40 9 -6 11 -4 5 4 -4 7 -4 38 0 68 4 33 10 51 15 44 4 -7 11
-13 16 -12 5 0 7 -19 6 -42 -5 -53 6 -45 12 9 2 21 7 47 11 56 4 9 2 25 -4 35
-8 14 -10 15 -11 3 0 -13 -1 -13 -10 0 -8 11 -9 7 -4 -15 5 -23 4 -27 -5 -19
-15 14 -4 167 11 157 6 -3 7 4 3 18 -7 23 -7 23 8 4 14 -19 15 -17 14 23 -2
48 -4 51 -17 20 -7 -20 -8 -17 -8 14 1 22 5 35 11 31 6 -3 8 -2 4 3 -3 5 -2
43 2 84 l8 75 3 -90 c3 -97 3 -99 19 -310 12 -156 13 -350 2 -437 -9 -74 3
-66 18 12 7 33 15 59 19 56 4 -2 8 24 9 57 1 34 11 114 22 177 12 63 24 167
27 230 3 63 9 144 13 180 8 59 8 53 11 -65 1 -71 6 -159 10 -195 6 -44 8 5 6
150 -2 210 -2 213 11 130 7 -47 12 -97 10 -112 -2 -15 0 -25 3 -23 6 4 11 -38
26 -209 2 -30 -2 -43 -19 -57 -12 -10 -28 -16 -34 -14 -7 2 -13 -2 -13 -10 0
-8 -4 -15 -10 -15 -5 0 -10 -7 -10 -16 0 -8 4 -12 10 -9 6 4 10 -9 10 -30 0
-38 -40 -101 -55 -87 -4 4 -6 2 -4 -3 1 -6 -1 -17 -5 -26 -4 -8 -2 -26 3 -40
l10 -24 0 26 c1 15 10 37 21 50 l19 24 1 -37 c0 -22 -5 -38 -11 -38 -7 0 -9
-9 -6 -21 8 -28 -3 -80 -14 -73 -5 3 -7 9 -5 13 3 4 -1 8 -9 8 -19 0 -20 2 17
-33 17 -16 28 -24 24 -17 -12 21 10 23 32 2 12 -11 22 -18 22 -15 0 3 16 -2
35 -10 19 -7 45 -14 57 -13 16 0 11 4 -17 13 -22 7 -60 23 -84 35 -40 21 -43
25 -37 53 3 17 6 37 6 45 0 8 3 12 8 10 4 -3 5 22 4 55 -3 43 -1 58 7 53 7 -3
10 -1 9 6 -2 7 2 13 9 14 6 0 15 4 20 9 5 5 2 6 -6 1 -10 -5 -12 -4 -7 4 10
15 29 3 22 -15 -3 -8 0 -14 7 -14 8 0 8 -3 -2 -9 -7 -5 -11 -14 -7 -19 8 -13
-28 -35 -39 -24 -5 4 -5 1 -1 -6 4 -7 12 -10 17 -7 11 7 12 -7 2 -21 -5 -5 2
1 15 14 l23 24 -7 -68 c-6 -66 -5 -68 10 -47 10 13 25 27 36 33 29 15 294 51
298 40 2 -6 12 -10 23 -10 12 0 16 -5 13 -15 -4 -9 0 -15 7 -15 8 -1 3 -7 -11
-15 -34 -20 -16 -19 23 1 18 9 53 36 78 61 34 33 49 41 55 32 5 -8 -10 -29
-45 -61 -29 -26 -50 -48 -46 -48 3 0 26 19 50 41 l45 42 0 -36 c0 -20 5 -39
10 -42 10 -6 13 65 10 298 -1 109 1 127 14 127 16 0 20 -14 18 -60 l-2 -25 10
23 c5 13 14 21 18 18 12 -7 46 -146 38 -153 -3 -4 -6 5 -6 18 0 17 -3 20 -9
11 -6 -10 -10 -8 -14 8 -3 12 -10 19 -16 15 -6 -3 -15 5 -21 19 -5 14 -12 26
-14 26 -5 0 23 -77 73 -200 32 -81 43 -82 12 -1 -16 42 -16 51 -4 72 12 21 13
22 11 4 -1 -11 2 -30 6 -43 8 -23 12 -61 24 -242 6 -83 8 -90 15 -55 4 22 10
52 13 68 3 15 9 27 14 27 7 0 13 -38 26 -167 7 -70 24 -75 24 -7 0 26 5 44 11
44 17 0 6 -76 -37 -265 -20 -88 -38 -178 -40 -200 -1 -22 -10 -96 -18 -165 -9
-69 -15 -132 -15 -140 2 -25 16 42 19 85 2 35 3 37 10 15 4 -14 8 -41 9 -59 2
-64 18 -18 31 87 12 98 52 277 64 289 3 4 6 -15 6 -40 0 -68 22 -247 30 -247
4 0 10 42 14 93 3 50 13 133 21 182 8 50 15 93 15 98 0 4 5 7 11 7 23 0 688
-392 868 -513 57 -38 131 -80 165 -95 89 -37 88 -35 76 -127 -24 -192 -104
-328 -336 -574 -235 -249 -568 -489 -909 -656 -152 -74 -423 -179 -580 -224
-100 -29 -121 -32 -232 -29 -67 1 -120 5 -117 10 4 6 -55 -10 -65 -18 -2 -2
557 -4 1242 -4 l1247 0 0 2560 0 2560 -2560 0 -2560 0 0 -2560z m4510 1810 c0
-5 -4 -10 -9 -10 -6 0 -13 5 -16 10 -3 6 1 10 9 10 9 0 16 -4 16 -10z m-2103
-907 c-3 -10 -5 -2 -5 17 0 19 2 27 5 18 2 -10 2 -26 0 -35z m758 16 c-5 -15
-4 -19 5 -14 9 6 9 3 1 -13 -6 -11 -11 -58 -11 -104 0 -77 3 -90 39 -163 22
-44 40 -74 40 -67 1 7 -4 23 -10 35 -10 21 -10 21 5 3 9 -11 16 -26 16 -33 0
-17 -33 -33 -68 -33 l-29 0 -7 100 c-4 55 -5 104 -2 108 2 4 6 46 7 92 2 83 6
110 16 110 2 0 1 -10 -2 -21z m-925 -78 c0 -39 -4 -61 -13 -64 -8 -3 -14 4
-15 16 -1 18 1 19 9 7 7 -12 9 -10 8 10 -3 39 0 90 6 90 3 0 5 -27 5 -59z
m737 27 c-3 -7 -5 -2 -5 12 0 14 2 19 5 13 2 -7 2 -19 0 -25z m-552 -71 c7
-90 -5 -143 -30 -134 -10 5 -15 -5 -18 -36 -2 -23 -2 -4 0 43 3 47 8 86 13 88
4 2 6 24 4 50 l-3 47 9 -45 c5 -25 7 -61 4 -80 l-4 -35 10 30 c9 27 7 71 -6
133 -2 12 0 22 5 22 5 0 12 -37 16 -83z m775 48 c0 -8 -2 -15 -4 -15 -2 0 -6
7 -10 15 -3 8 -1 15 4 15 6 0 10 -7 10 -15z m1574 0 c3 -8 1 -15 -4 -15 -6 0
-10 7 -10 15 0 8 2 15 4 15 2 0 6 -7 10 -15z m-2717 -17 c-3 -8 -6 -5 -6 6 -1
11 2 17 5 13 3 -3 4 -12 1 -19z m959 -141 c-2 -11 -2 -16 2 -13 8 8 53 -154
46 -166 -14 -22 -33 -4 -42 40 -11 51 -29 168 -37 247 -4 49 -4 49 16 -20 11
-38 18 -78 15 -88z m174 118 c0 -5 -5 -3 -10 5 -5 8 -10 20 -10 25 0 6 5 3 10
-5 5 -8 10 -19 10 -25z m37 -53 c-3 -12 -5 -11 -6 6 -1 24 -16 30 -24 10 -4
-10 -6 -10 -6 -1 -1 6 3 14 9 18 5 3 7 13 4 23 -3 9 2 4 11 -11 9 -16 14 -36
12 -45z m-1177 -157 l0 -215 -35 0 c-19 0 -35 4 -35 9 0 5 13 100 30 212 16
112 30 205 30 207 0 1 2 2 5 2 3 0 5 -97 5 -215z m923 145 c3 -43 2 -58 -4
-45 -7 15 -8 11 -4 -15 3 -18 9 -36 14 -40 5 -3 15 -37 23 -77 l15 -72 -40
-16 c-22 -9 -41 -14 -43 -12 -2 2 1 60 6 128 13 146 21 221 25 217 1 -2 5 -32
8 -68z m-1110 -183 c-5 -133 -9 -177 -19 -177 -7 0 -19 -3 -27 -6 -10 -4 -14
1 -12 18 1 13 3 39 4 58 1 26 4 31 11 20 6 -10 9 5 9 47 0 34 4 70 10 81 6 11
7 22 4 26 -3 3 -1 6 6 6 8 0 11 6 7 16 -6 15 3 98 10 91 2 -1 0 -82 -3 -180z
m1383 136 c-3 -4 -1 -12 5 -19 6 -8 15 -28 19 -46 5 -18 12 -43 15 -55 6 -17
3 -23 -9 -23 -9 0 -16 5 -16 11 0 5 5 7 10 4 14 -9 13 -5 -10 43 -12 24 -18
47 -15 52 3 5 1 11 -4 15 -6 3 -7 13 -4 22 5 11 3 14 -6 9 -7 -5 -10 -17 -8
-28 3 -11 3 -17 0 -14 -4 3 -12 1 -20 -6 -7 -6 -4 8 9 31 18 34 24 38 31 25 5
-8 6 -18 3 -21z m727 22 c41 -41 63 -318 34 -417 -8 -24 -39 -82 -69 -129 -31
-46 -77 -123 -103 -171 -26 -49 -52 -89 -58 -89 -7 -1 -21 -1 -32 0 -15 2 -17
0 -6 -7 9 -7 5 -11 -17 -14 -22 -3 -29 -1 -25 9 4 9 0 11 -11 7 -9 -3 -13 -11
-9 -18 4 -8 3 -8 -6 0 -10 9 -7 30 14 95 22 70 34 91 72 127 45 42 73 53 73
30 0 -7 9 1 19 19 11 17 17 40 14 52 -3 12 0 27 6 34 6 8 9 17 6 21 -3 3 0 2
7 -3 8 -8 8 -14 -1 -25 -7 -9 -11 -21 -8 -28 2 -7 18 16 36 51 31 64 37 101 6
42 -10 -19 -20 -29 -27 -24 -9 5 -9 8 0 11 7 2 12 16 11 30 0 24 -1 25 -9 7
-5 -12 -6 4 -3 40 3 33 7 62 9 64 2 2 12 -3 23 -13 17 -16 19 -15 31 14 7 16
10 43 8 59 -2 17 -1 28 4 25 20 -13 5 49 -17 72 -26 26 -29 43 -19 107 7 39
23 47 47 22z m-1752 -17 c1 -22 1 -22 9 2 7 24 7 23 13 -10 6 -36 27 -334 24
-337 -1 -1 -32 6 -69 15 -58 15 -67 20 -63 37 2 11 11 63 20 115 20 108 36
157 43 126 2 -10 -1 -23 -7 -29 -15 -15 -14 -54 1 -59 7 -3 8 -9 3 -18 -7 -11
-10 -10 -15 5 -4 12 -7 0 -8 -29 0 -27 3 -58 8 -70 6 -17 9 -13 14 24 4 25 14
79 23 120 12 54 13 75 4 78 -6 2 -11 11 -11 20 0 15 -2 15 -10 2 -8 -12 -10
-11 -10 8 0 13 6 22 15 22 9 0 15 -10 16 -22z m1189 -57 c0 -3 -5 1 -10 9 -11
17 -13 1 -4 -25 6 -13 9 -14 16 -3 8 10 9 9 5 -4 -3 -9 -1 -19 6 -22 9 -3 9
-5 0 -5 -25 -2 -43 31 -43 77 l1 47 14 -34 c8 -18 15 -36 15 -40z m-1193 -3
c-3 -8 -6 -5 -6 6 -1 11 2 17 5 13 3 -3 4 -12 1 -19z m-228 -54 c-14 -74 -18
-88 -25 -81 -3 3 2 37 12 76 20 85 28 88 13 5z m428 29 c-3 -10 -5 -4 -5 12 0
17 2 24 5 18 2 -7 2 -21 0 -30z m-212 -12 c3 -5 1 -12 -5 -16 -5 -3 -10 1 -10
9 0 18 6 21 15 7z m1215 -21 c12 -8 11 -10 -7 -10 -13 0 -23 5 -23 10 0 13 11
13 30 0z m32 -60 l8 -25 -17 21 c-10 12 -25 24 -33 28 -8 3 -4 4 9 3 15 -1 27
-11 33 -27z m-122 -106 c11 -49 22 -100 26 -114 4 -20 3 -22 -5 -10 -7 9 -11
10 -11 3 0 -6 5 -15 10 -18 6 -3 10 -14 10 -24 0 -15 -14 -20 -72 -30 -39 -6
-75 -8 -79 -4 -10 10 -36 138 -45 220 l-6 61 38 11 c69 19 101 12 73 -16 -8
-8 -7 -19 4 -39 l14 -28 13 23 c8 17 9 26 1 34 -6 6 -11 20 -11 32 1 37 18 -7
40 -101z m-1360 52 c0 -46 -13 -86 -27 -86 -9 0 -13 7 -10 18 3 9 8 34 12 55
7 41 25 51 25 13z m1847 -18 c-3 -7 -5 -2 -5 12 0 14 2 19 5 13 2 -7 2 -19 0
-25z m-724 5 c2 -10 8 -26 12 -37 7 -16 6 -17 -15 -6 -13 7 -18 15 -12 19 6 4
4 11 -6 20 -14 13 -15 11 -9 -17 8 -38 -10 -44 -19 -6 -10 38 38 64 49 27z
m-72 -10 c8 -52 6 -59 -17 -70 -13 -6 -24 -7 -24 -2 0 5 -5 9 -11 9 -5 0 -7
-4 -4 -10 3 -5 -1 -10 -10 -10 -9 0 -14 -4 -11 -9 7 -10 -22 -37 -30 -28 -4 3
-3 14 1 24 5 10 7 24 6 32 -2 8 2 10 11 5 10 -6 11 -5 1 8 -15 17 -7 29 13 21
8 -3 14 0 14 6 0 17 59 39 61 24z m-1727 -34 c3 -17 6 -47 6 -66 0 -30 -2 -33
-19 -23 -15 7 -24 5 -41 -8 -18 -15 -21 -24 -15 -55 4 -21 17 -45 29 -55 13
-9 21 -23 20 -30 -1 -7 0 -8 3 -2 11 23 41 10 47 -21 9 -47 8 -61 -6 -53 -7 4
-10 4 -6 0 3 -4 2 -23 -4 -42 -7 -28 -6 -41 7 -60 9 -14 13 -30 9 -37 -4 -7
-4 -9 1 -5 4 4 20 -1 35 -12 16 -11 33 -20 40 -20 6 0 8 -5 4 -12 -5 -7 -3 -8
5 -3 8 4 25 -2 42 -14 16 -12 29 -17 29 -12 0 15 -50 51 -71 51 -10 0 -21 5
-25 12 -11 17 -6 180 6 192 13 13 13 27 -1 24 -8 -2 -11 21 -10 72 2 41 4 76
6 78 4 4 27 -117 29 -150 0 -14 4 -24 7 -23 3 2 11 -19 18 -48 7 -29 26 -95
41 -147 16 -52 40 -137 55 -189 15 -52 30 -102 33 -110 3 -9 -31 25 -76 75
-45 50 -105 110 -133 134 -99 83 -138 166 -159 338 -21 168 -16 213 28 237 42
23 59 19 66 -16z m2520 -14 c3 -8 1 -15 -4 -15 -6 0 -10 7 -10 15 0 8 2 15 4
15 2 0 6 -7 10 -15z m-687 -36 c9 -22 8 -31 -3 -40 -8 -6 -11 -16 -8 -21 4 -6
9 -5 14 2 9 14 30 5 30 -13 0 -8 -3 -8 -9 2 -6 10 -10 10 -16 1 -8 -13 -45 15
-45 34 0 6 4 6 9 -2 6 -10 10 -10 21 3 10 12 10 15 -3 15 -8 0 -23 3 -31 6
-19 7 -13 -16 16 -58 10 -14 18 -29 18 -32 0 -13 -30 -5 -40 12 -10 15 -10 15
-5 -4 5 -18 -1 -23 -37 -32 l-43 -11 42 5 c34 5 44 2 49 -11 4 -9 5 -18 2 -20
-7 -7 -210 -36 -216 -31 -13 14 11 36 40 38 l33 1 -32 4 c-35 5 -36 19 -4 57
9 11 10 16 4 12 -19 -11 -15 9 5 27 24 22 84 45 102 40 12 -4 12 -3 1 5 -10 7
-10 11 -1 17 14 8 13 10 34 -40 l16 -40 -6 42 c-7 50 -2 61 29 61 17 0 27 -9
34 -29z m-287 -6 c0 -10 -12 -29 -25 -42 l-25 -23 0 30 c0 19 7 35 18 41 25
15 32 13 32 -6z m-981 -9 c5 -5 19 -238 14 -247 -4 -7 -93 0 -101 8 -7 7 19
219 29 237 7 14 16 17 32 12 12 -3 24 -8 26 -10z m1969 -15 c-3 -8 -7 -3 -11
10 -4 17 -3 21 5 13 5 -5 8 -16 6 -23z m-1882 -49 c-3 -43 -2 -70 4 -70 6 0
10 17 10 39 0 21 3 53 6 70 6 28 10 31 45 31 37 0 39 -2 39 -30 0 -23 -4 -30
-20 -30 -11 0 -20 -5 -20 -11 0 -7 10 -9 24 -7 24 5 25 2 31 -51 3 -31 8 -71
11 -88 l5 -33 -66 0 c-63 0 -65 1 -65 25 0 24 3 25 58 27 l57 2 -51 3 c-43 3
-53 8 -59 26 -6 19 -8 19 -12 5 -6 -25 -43 -23 -43 1 0 10 7 21 15 25 8 3 15
11 15 18 0 9 -3 9 -11 -2 -7 -11 -8 -1 -5 35 2 28 5 58 5 68 1 9 8 17 17 17
14 0 15 -10 10 -70z m308 34 c7 -3 17 -30 23 -60 l10 -54 -21 19 c-25 23 -104
60 -128 61 -13 0 -18 8 -18 26 0 27 0 27 61 20 33 -4 66 -9 73 -12z m1550 -20
c3 -8 2 -12 -4 -9 -6 3 -10 10 -10 16 0 14 7 11 14 -7z m23 -31 c-3 -10 -5 -4
-5 12 0 17 2 24 5 18 2 -7 2 -21 0 -30z m-39 -28 c0 -16 -2 -15 -8 5 -11 34
-11 60 0 35 5 -11 8 -29 8 -40z m-2481 3 c-3 -7 -5 -2 -5 12 0 14 2 19 5 13 2
-7 2 -19 0 -25z m911 -8 c29 -17 50 -35 47 -41 -4 -5 -1 -8 6 -7 6 2 13 -2 15
-7 3 -6 -15 -9 -43 -8 l-48 2 51 -11 c46 -9 53 -14 58 -40 10 -52 8 -62 -9
-48 -8 7 -15 19 -15 27 0 13 -15 15 -90 11 -88 -5 -90 -4 -90 17 0 17 8 24 33
31 l32 8 -33 3 c-27 4 -31 7 -27 26 3 12 7 32 8 45 2 32 40 29 105 -8z m926
-1 c-4 -7 1 -7 16 1 15 8 20 8 16 1 -4 -6 -1 -11 6 -12 7 0 -5 -6 -27 -13 -34
-11 -42 -11 -52 2 -20 24 -16 32 18 32 19 0 28 -4 23 -11z m684 -39 c0 -17 -4
-30 -11 -30 -7 0 -30 -12 -52 -26 -22 -15 -35 -21 -28 -14 6 7 9 19 6 28 -9
23 25 44 48 29 10 -6 22 -7 26 -3 4 5 2 11 -4 13 -7 3 -13 9 -13 14 0 6 5 7
10 4 6 -3 10 -1 10 4 0 26 7 8 8 -19z m-553 -40 c-3 -5 -14 -10 -23 -9 -14 0
-13 2 3 9 27 11 27 11 20 0z m-1335 -26 c0 -20 -5 -24 -27 -23 -16 0 -23 3
-17 5 7 3 10 13 7 22 -3 12 2 18 16 19 16 1 21 -4 21 -23z m1647 -36 c-2 -13
-4 -5 -4 17 -1 22 1 32 4 23 2 -10 2 -28 0 -40z m-2230 -122 c-2 -5 -11 4 -21
19 -13 20 -16 36 -10 64 l7 36 13 -55 c8 -30 12 -59 11 -64z m523 94 c0 -5 -4
-10 -10 -10 -5 0 -10 5 -10 10 0 6 5 10 10 10 6 0 10 -4 10 -10z m-232 -372
c6 -18 13 -41 17 -50 6 -15 2 -18 -23 -18 -28 0 -31 4 -37 41 -9 50 1 64 10
15 11 -56 29 -58 22 -3 -8 55 -2 61 11 15z m236 -1592 l150 -53 14 -73 c14
-69 14 -77 -6 -139 -11 -36 -24 -88 -27 -116 -10 -79 -8 -78 -72 -43 -93 50
-191 113 -253 162 -51 39 -59 50 -69 95 l-11 51 53 85 c28 47 57 85 62 85 6 0
77 -24 159 -54z m-77 48 c-3 -3 -12 -4 -19 -1 -8 3 -5 6 6 6 11 1 17 -2 13 -5z
m173 -8 c29 -10 36 -18 38 -44 l3 -32 -98 35 c-54 19 -100 35 -103 36 -3 0 4
4 15 9 29 13 105 10 145 -4z"/>
<path d="M2390 3240 c0 -5 5 -10 11 -10 5 0 7 5 4 10 -3 6 -8 10 -11 10 -2 0
-4 -4 -4 -10z"/>
<path d="M3041 3104 c0 -11 3 -14 6 -6 3 7 2 16 -1 19 -3 4 -6 -2 -5 -13z"/>
<path d="M2031 3244 c0 -11 3 -14 6 -6 3 7 2 16 -1 19 -3 4 -6 -2 -5 -13z"/>
<path d="M1842 3050 c0 -14 2 -19 5 -12 2 6 2 18 0 25 -3 6 -5 1 -5 -13z"/>
<path d="M1826 2995 c-9 -26 -7 -32 5 -12 6 10 9 21 6 23 -2 3 -7 -2 -11 -11z"/>
<path d="M2151 3014 c0 -11 3 -14 6 -6 3 7 2 16 -1 19 -3 4 -6 -2 -5 -13z"/>
<path d="M3290 2975 c0 -2 7 -8 15 -15 12 -10 15 -10 15 2 0 8 -7 15 -15 15
-8 0 -15 -1 -15 -2z"/>
<path d="M3310 2926 c0 -2 7 -17 15 -32 16 -30 19 -25 9 14 -5 18 -24 33 -24
18z"/>
<path d="M2980 2970 c-9 -6 -10 -10 -3 -10 6 0 15 5 18 10 8 12 4 12 -15 0z"/>
<path d="M1232 2751 c1 -14 8 -26 15 -28 15 -5 11 23 -6 40 -10 10 -12 7 -9
-12z"/>
<path d="M3070 2931 c0 -9 24 -21 41 -21 6 0 7 5 4 10 -4 6 -11 8 -16 5 -5 -4
-9 -1 -9 4 0 6 -4 11 -10 11 -5 0 -10 -4 -10 -9z"/>
<path d="M2958 2773 c7 -3 16 -2 19 1 4 3 -2 6 -13 5 -11 0 -14 -3 -6 -6z"/>
<path d="M1841 2864 c0 -11 3 -14 6 -6 3 7 2 16 -1 19 -3 4 -6 -2 -5 -13z"/>
<path d="M1932 2875 c0 -16 2 -22 5 -12 2 9 2 23 0 30 -3 6 -5 -1 -5 -18z"/>
<path d="M3770 2726 c0 -8 -6 -17 -12 -19 -8 -4 -9 -6 -2 -6 18 -1 37 26 24
34 -5 3 -10 0 -10 -9z"/>
<path d="M2612 3160 c0 -14 2 -19 5 -12 2 6 2 18 0 25 -3 6 -5 1 -5 -13z"/>
<path d="M2752 3120 c0 -14 2 -19 5 -12 2 6 2 18 0 25 -3 6 -5 1 -5 -13z"/>
<path d="M2620 3101 c0 -5 5 -13 10 -16 6 -3 10 -2 10 4 0 5 -4 13 -10 16 -5
3 -10 2 -10 -4z"/>
<path d="M2806 3057 c3 -10 9 -15 12 -12 3 3 0 11 -7 18 -10 9 -11 8 -5 -6z"/>
<path d="M2387 3052 c-9 -13 -3 -81 5 -76 5 3 7 23 6 45 -3 41 -4 44 -11 31z"/>
<path d="M3411 3024 c0 -11 3 -14 6 -6 3 7 2 16 -1 19 -3 4 -6 -2 -5 -13z"/>
<path d="M3456 3005 c4 -22 10 -47 15 -55 10 -18 0 46 -12 75 -6 13 -6 5 -3
-20z"/>
<path d="M2810 3015 c0 -8 5 -15 10 -15 6 0 10 7 10 15 0 8 -4 15 -10 15 -5 0
-10 -7 -10 -15z"/>
<path d="M2810 2979 c0 -5 5 -7 10 -4 6 3 10 8 10 11 0 2 -4 4 -10 4 -5 0 -10
-5 -10 -11z"/>
<path d="M2360 2955 c0 -8 4 -15 10 -15 5 0 7 7 4 15 -4 8 -8 15 -10 15 -2 0
-4 -7 -4 -15z"/>
<path d="M2382 2870 c0 -19 2 -27 5 -17 2 9 2 25 0 35 -3 9 -5 1 -5 -18z"/>
<path d="M2807 2789 c7 -7 15 -10 18 -7 3 3 -2 9 -12 12 -14 6 -15 5 -6 -5z"/>
<path d="M2731 2664 c0 -11 3 -14 6 -6 3 7 2 16 -1 19 -3 4 -6 -2 -5 -13z"/>
<path d="M2940 2650 c8 -5 26 -10 39 -10 32 0 24 6 -19 14 -25 4 -31 3 -20 -4z"/>
<path d="M3135 2650 c-27 -7 -28 -8 -5 -8 14 0 34 3 45 8 25 11 2 11 -40 0z"/>
<path d="M2514 2568 c3 -29 9 -135 13 -235 5 -141 3 -183 -6 -183 -7 0 -9 -4
-6 -10 26 -42 31 42 18 328 -3 89 -10 152 -16 152 -6 0 -7 -20 -3 -52z"/>
<path d="M2190 2598 c0 -4 6 -8 13 -8 8 0 7 -4 -3 -10 -27 -17 4 -10 40 10
l35 19 -42 -1 c-24 -1 -43 -5 -43 -10z"/>
<path d="M1930 2580 c8 -5 22 -9 30 -9 10 0 8 3 -5 9 -27 12 -43 12 -25 0z"/>
<path d="M1988 2563 c7 -3 16 -2 19 1 4 3 -2 6 -13 5 -11 0 -14 -3 -6 -6z"/>
<path d="M2148 2563 c7 -3 16 -2 19 1 4 3 -2 6 -13 5 -11 0 -14 -3 -6 -6z"/>
<path d="M2053 2553 c15 -2 39 -2 55 0 15 2 2 4 -28 4 -30 0 -43 -2 -27 -4z"/>
<path d="M1783 2410 c0 -25 2 -35 4 -22 2 12 2 32 0 45 -2 12 -4 2 -4 -23z"/>
<path d="M2744 1958 l-19 -23 23 19 c21 18 27 26 19 26 -2 0 -12 -10 -23 -22z"/>
<path d="M2596 1938 c10 -14 21 -24 23 -22 3 3 -6 15 -18 27 l-24 22 19 -27z"/>
<path d="M1912 1682 c2 -4 23 -42 48 -85 25 -42 55 -96 67 -119 19 -35 43 -53
170 -127 81 -48 180 -107 218 -131 39 -24 124 -72 191 -106 135 -69 198 -106
232 -138 15 -13 21 -15 17 -5 -8 21 -92 74 -230 145 -66 33 -190 104 -275 156
-85 52 -186 112 -223 133 -38 20 -72 45 -75 54 -17 41 -127 231 -135 231 -5 0
-7 -3 -5 -8z"/>
<path d="M1398 1643 c7 -3 16 -2 19 1 4 3 -2 6 -13 5 -11 0 -14 -3 -6 -6z"/>
<path d="M1518 1643 c6 -2 18 -2 25 0 6 3 1 5 -13 5 -14 0 -19 -2 -12 -5z"/>
<path d="M3522 1625 c0 -16 2 -22 5 -12 2 9 2 23 0 30 -3 6 -5 -1 -5 -18z"/>
<path d="M2512 1593 c-18 -8 -31 -18 -28 -20 5 -5 66 25 66 32 0 7 -1 7 -38
-12z"/>
<path d="M1821 1556 c10 -9 189 -96 189 -91 0 5 -176 95 -186 95 -4 0 -5 -2
-3 -4z"/>
<path d="M3511 1544 c0 -11 3 -14 6 -6 3 7 2 16 -1 19 -3 4 -6 -2 -5 -13z"/>
<path d="M2665 1531 c-25 -4 0 -7 65 -6 57 0 91 3 75 6 -38 8 -88 8 -140 0z"/>
<path d="M4243 1458 c24 -35 72 -111 107 -171 35 -59 65 -105 67 -103 2 2 -28
57 -68 122 -39 66 -72 125 -72 132 0 6 -2 10 -5 7 -3 -2 -18 14 -33 35 -16 22
-32 40 -35 40 -3 0 15 -28 39 -62z"/>
<path d="M3317 1468 c-48 -85 -127 -235 -127 -244 0 -7 58 95 151 269 20 36 0
15 -24 -25z"/>
<path d="M3501 1434 c0 -11 3 -14 6 -6 3 7 2 16 -1 19 -3 4 -6 -2 -5 -13z"/>
<path d="M3492 1365 c0 -16 2 -22 5 -12 2 9 2 23 0 30 -3 6 -5 -1 -5 -18z"/>
<path d="M4414 1234 c14 -37 78 -145 83 -141 2 3 -6 22 -19 44 -14 21 -30 53
-37 71 -15 35 -40 60 -27 26z"/>
<path d="M4500 1155 c1 -6 7 -21 16 -35 l15 -25 -7 25 c-7 26 -24 52 -24 35z"/>
<path d="M3146 1135 c-9 -26 -7 -32 5 -12 6 10 9 21 6 23 -2 3 -7 -2 -11 -11z"/>
<path d="M3079 989 c-34 -67 -136 -294 -150 -335 -13 -37 -14 -32 -19 106 l-6
145 -2 -170 c-3 -209 -17 -356 -37 -395 -22 -43 -18 -50 7 -10 16 27 23 59 29
141 9 119 21 154 137 407 39 84 68 152 66 152 -2 0 -13 -18 -25 -41z"/>
<path d="M3486 923 c-3 -21 -6 -99 -6 -175 0 -100 -3 -138 -12 -141 -7 -3 1
-5 17 -5 17 0 24 2 18 5 -10 3 -11 46 -6 179 6 168 2 215 -11 137z"/>
<path d="M4326 880 c-115 -44 -211 -82 -215 -86 -3 -4 3 -4 14 1 11 4 70 25
130 46 206 71 322 117 295 117 -8 0 -109 -35 -224 -78z"/>
<path d="M1590 699 c-36 -27 -74 -59 -85 -70 l-20 -21 21 10 c11 6 27 18 34
28 8 9 40 34 72 55 32 22 58 42 58 44 0 12 -20 1 -80 -46z"/>
<path d="M3778 683 c7 -3 16 -2 19 1 4 3 -2 6 -13 5 -11 0 -14 -3 -6 -6z"/>
<path d="M2794 658 l-19 -23 23 19 c21 18 27 26 19 26 -2 0 -12 -10 -23 -22z"/>
<path d="M2721 604 c-24 -13 -38 -24 -31 -24 13 0 80 38 80 46 0 5 1 6 -49
-22z"/>
<path d="M3535 620 c-25 -11 1 -11 35 0 20 6 21 8 5 8 -11 0 -29 -3 -40 -8z"/>
<path d="M2603 573 c13 -3 17 -15 18 -51 0 -26 4 -65 8 -87 6 -34 3 -50 -22
-100 -16 -33 -38 -83 -48 -112 l-18 -52 32 6 c41 8 47 13 14 13 -23 0 -25 2
-18 28 5 15 24 61 43 102 32 70 34 80 27 135 -13 103 -11 113 14 118 12 2 2 4
-23 4 -25 1 -37 -1 -27 -4z"/>
<path d="M3028 421 c-52 -29 -66 -41 -52 -41 6 0 34 16 64 35 64 41 56 45 -12
6z"/>
<path d="M2685 380 c-14 -7 -8 -8 20 -3 22 3 42 7 44 9 9 8 -45 2 -64 -6z"/>
<path d="M2826 255 c-9 -26 -7 -32 5 -12 6 10 9 21 6 23 -2 3 -7 -2 -11 -11z"/>
<path d="M2805 209 c-4 -6 -5 -12 -2 -15 2 -3 7 2 10 11 7 17 1 20 -8 4z"/>
<path d="M2780 143 c-7 -21 -21 -53 -32 -72 -14 -25 -15 -31 -4 -22 16 13 60
120 52 128 -2 2 -9 -13 -16 -34z"/>
<path d="M2490 153 c-14 -9 -47 -38 -75 -64 -41 -39 -62 -51 -115 -65 -36 -9
-67 -18 -69 -20 -2 -2 25 -4 60 -4 l64 0 35 47 c19 26 59 64 89 85 53 37 62
54 11 21z"/>
</g>
</svg>
